<svg width="22" height="27" viewBox="0 0 22 27" fill="none" xmlns="http://www.w3.org/2000/svg">
<path d="M20.9 4.40001H17.49C17.2347 3.15857 16.5592 2.0431 15.5774 1.2416C14.5956 0.440114 13.3674 0.00161524 12.1 1.52588e-05L9.9 1.52588e-05C8.63258 0.00161524 7.40445 0.440114 6.42262 1.2416C5.4408 2.0431 4.76531 3.15857 4.51 4.40001H1.1C0.808262 4.40001 0.528472 4.51591 0.322183 4.7222C0.115892 4.92849 0 5.20828 0 5.50001C0 5.79175 0.115892 6.07154 0.322183 6.27783C0.528472 6.48412 0.808262 6.60001 1.1 6.60001H2.2V20.9C2.20175 22.3582 2.78177 23.7561 3.81284 24.7872C4.84391 25.8182 6.24185 26.3983 7.7 26.4H14.3C15.7582 26.3983 17.1561 25.8182 18.1872 24.7872C19.2182 23.7561 19.7983 22.3582 19.8 20.9V6.60001H20.9C21.1917 6.60001 21.4715 6.48412 21.6778 6.27783C21.8841 6.07154 22 5.79175 22 5.50001C22 5.20828 21.8841 4.92849 21.6778 4.7222C21.4715 4.51591 21.1917 4.40001 20.9 4.40001ZM9.9 2.20002H12.1C12.7823 2.20085 13.4476 2.41273 14.0048 2.8066C14.5619 3.20048 14.9836 3.75706 15.2119 4.40001H6.7881C7.01644 3.75706 7.43809 3.20048 7.99523 2.8066C8.55236 2.41273 9.2177 2.20085 9.9 2.20002ZM17.6 20.9C17.6 21.7752 17.2523 22.6146 16.6335 23.2335C16.0146 23.8523 15.1752 24.2 14.3 24.2H7.7C6.82479 24.2 5.98542 23.8523 5.36655 23.2335C4.74768 22.6146 4.4 21.7752 4.4 20.9V6.60001H17.6V20.9Z" fill="#C53C3C"/>
<path d="M8.79995 19.8C9.09169 19.8 9.37148 19.6841 9.57777 19.4778C9.78406 19.2715 9.89995 18.9917 9.89995 18.7V12.1C9.89995 11.8083 9.78406 11.5285 9.57777 11.3222C9.37148 11.1159 9.09169 11 8.79995 11C8.50821 11 8.22842 11.1159 8.02213 11.3222C7.81584 11.5285 7.69995 11.8083 7.69995 12.1V18.7C7.69995 18.9917 7.81584 19.2715 8.02213 19.4778C8.22842 19.6841 8.50821 19.8 8.79995 19.8Z" fill="#C53C3C"/>
<path d="M13.2 19.8C13.4917 19.8 13.7715 19.6841 13.9778 19.4778C14.1841 19.2715 14.3 18.9917 14.3 18.7V12.1C14.3 11.8083 14.1841 11.5285 13.9778 11.3222C13.7715 11.1159 13.4917 11 13.2 11C12.9082 11 12.6284 11.1159 12.4222 11.3222C12.2159 11.5285 12.1 11.8083 12.1 12.1V18.7C12.1 18.9917 12.2159 19.2715 12.4222 19.4778C12.6284 19.6841 12.9082 19.8 13.2 19.8Z" fill="#C53C3C"/>
</svg>
