<svg width="25" height="25" viewBox="0 0 25 25" fill="none" xmlns="http://www.w3.org/2000/svg">
<path d="M9.67504 13.6115C7.2615 14.076 6.06567 16.7635 5.54692 18.4385C5.498 18.5947 5.48655 18.7601 5.51348 18.9215C5.54042 19.0829 5.605 19.2357 5.70198 19.3674C5.79896 19.4992 5.92561 19.6063 6.07169 19.68C6.21776 19.7537 6.37914 19.7919 6.54275 19.7917H10.4167C10.8512 19.7917 11.2809 19.7012 11.6785 19.5259C12.076 19.3505 12.4326 19.0942 12.7255 18.7733C13.0184 18.4523 13.2411 18.0738 13.3795 17.662C13.5179 17.2501 13.5689 16.8139 13.5292 16.3812C13.4738 15.9392 13.3278 15.5133 13.1002 15.1302C12.8726 14.7472 12.5684 14.4153 12.2066 14.1553C11.8448 13.8952 11.4332 13.7127 10.9976 13.6192C10.562 13.5256 10.1117 13.523 9.67504 13.6115Z" fill="#D5D5D5"/>
<path d="M23.9583 9.35312C23.682 9.35312 23.4171 9.46286 23.2217 9.65821C23.0264 9.85356 22.9166 10.1185 22.9166 10.3948V15.625H18.75C17.9212 15.625 17.1263 15.9542 16.5403 16.5403C15.9542 17.1263 15.625 17.9212 15.625 18.75V22.9166H5.20833C4.37953 22.9166 3.58467 22.5874 2.99862 22.0014C2.41257 21.4153 2.08333 20.6205 2.08333 19.7917V5.20833C2.08333 4.37953 2.41257 3.58467 2.99862 2.99862C3.58467 2.41257 4.37953 2.08333 5.20833 2.08333H16.7104C16.9867 2.08333 17.2516 1.97359 17.447 1.77823C17.6423 1.58288 17.7521 1.31793 17.7521 1.04167C17.7521 0.765399 17.6423 0.500447 17.447 0.305097C17.2516 0.109747 16.9867 0 16.7104 0L5.20833 0C3.8275 0.00165402 2.5037 0.550918 1.52731 1.52731C0.550918 2.5037 0.00165402 3.8275 0 5.20833L0 19.7917C0.00165402 21.1725 0.550918 22.4963 1.52731 23.4727C2.5037 24.4491 3.8275 24.9983 5.20833 25H17.0239C17.7081 25.0019 18.3858 24.8681 19.0179 24.6064C19.6499 24.3446 20.2238 23.96 20.7062 23.475L23.475 20.7062C23.96 20.2238 24.3446 19.6499 24.6064 19.0179C24.8681 18.3858 25.0019 17.7081 25 17.0239V10.3948C25 10.1185 24.8902 9.85356 24.6949 9.65821C24.4995 9.46286 24.2346 9.35312 23.9583 9.35312ZM19.2333 22.0021C18.8132 22.4174 18.2848 22.7062 17.7083 22.8354V18.75C17.7083 18.4737 17.8181 18.2088 18.0134 18.0134C18.2088 17.8181 18.4737 17.7083 18.75 17.7083H22.8385C22.7093 18.2848 22.4206 18.8132 22.0052 19.2333L19.2333 22.0021Z" fill="#D5D5D5"/>
<path d="M15.1729 14.7604C14.9669 14.7604 14.7656 14.6992 14.5943 14.5848C14.4231 14.4703 14.2896 14.3077 14.2107 14.1173C14.1319 13.927 14.1113 13.7176 14.1515 13.5156C14.1916 13.3135 14.2908 13.128 14.4365 12.9823L22.6167 4.80208C22.7081 4.71084 22.7806 4.60246 22.8301 4.48315C22.8796 4.36384 22.9051 4.23594 22.9051 4.10677C22.9051 3.9776 22.8796 3.8497 22.8301 3.73039C22.7806 3.61108 22.7081 3.5027 22.6167 3.41146C22.5237 3.31477 22.411 3.23916 22.2863 3.18974C22.1616 3.14032 22.0277 3.11825 21.8937 3.125C21.7598 3.12791 21.628 3.15847 21.5064 3.21476C21.3849 3.27104 21.2763 3.35184 21.1875 3.45208L13.2708 12.2094C13.0856 12.4144 12.8265 12.5374 12.5506 12.5513C12.2746 12.5653 12.0045 12.4691 11.7995 12.2838C11.5945 12.0986 11.4715 11.8395 11.4575 11.5636C11.4435 11.2877 11.5398 11.0175 11.725 10.8125L19.6417 2.0625C19.9193 1.75257 20.257 1.50227 20.6343 1.32679C21.0115 1.15131 21.4205 1.05431 21.8364 1.04167C22.253 1.03274 22.6671 1.10763 23.0542 1.26188C23.4412 1.41612 23.7933 1.64659 24.0896 1.93958C24.6638 2.51508 24.9863 3.29485 24.9863 4.10781C24.9863 4.92078 24.6638 5.70054 24.0896 6.27604L15.9094 14.4562C15.8128 14.5531 15.698 14.6299 15.5716 14.6821C15.4452 14.7343 15.3097 14.7609 15.1729 14.7604Z" fill="#D5D5D5"/>
</svg>
